<svg width="90.000000" height="36.000000" viewBox="0 0 90 36" fill="none" xmlns="http://www.w3.org/2000/svg" xmlns:xlink="http://www.w3.org/1999/xlink">
	<desc>
			Created with Pixso.
	</desc>
	<defs/>
	<g opacity="0.260000">
		<path id="Oval 4" d="M27.0181 23.0562C26.683 17.3871 18.2417 2.53989 18.2417 2.53989C18.2417 2.53986 9.64497 15.2623 9.64497 22.9773C9.64497 30.6923 13.4071 31.037 18.2417 31.037C23.0764 31.037 27.0181 30.7712 27.0181 23.0562L27.0181 23.0562Z" fill="#007420" fill-opacity="1.000000" fill-rule="evenodd"/>
	</g>
	<g opacity="0.260000">
		<path id="Oval 4" d="M26.417 18.7391C23.3352 13.9992 7.59971 4.78455 7.59972 4.78455C7.59969 4.78452 6.36112 20.313 10.1601 26.9949C12.6612 32.7101 17.6634 31.4394 20.7898 31.4395C26.4175 31.4397 28.9185 26.9957 26.417 18.7391L26.417 18.7391Z" fill="#007420" fill-opacity="1.000000" fill-rule="evenodd"/>
	</g>
	<g opacity="0.260000">
		<path id="Oval 4" d="M10.1113 18.7391C13.193 13.9992 28.9286 4.78452 28.9285 4.78452C28.9286 4.78448 30.1672 20.3129 26.3682 26.9949C23.8671 32.7101 18.8649 31.4394 15.7385 31.4395C10.1108 31.4397 7.60977 26.9957 10.1113 18.7391L10.1113 18.7391Z" fill="#007420" fill-opacity="1.000000" fill-rule="evenodd"/>
	</g>
	<path id="Graphty" d="M48.6934 22.4897L48.6934 20.7084Q48.4707 21.1713 48.1367 21.5141Q47.8027 21.8569 47.3926 22.0795Q46.9824 22.3022 46.5166 22.4135Q46.0508 22.5248 45.5703 22.5248Q44.7031 22.5248 43.9707 22.2348Q43.2383 21.9448 42.6436 21.312Q42.0488 20.6791 41.7354 19.812Q41.4219 18.9448 41.4219 18.0014Q41.4219 17.0522 41.7354 16.2084Q42.0488 15.3647 42.6143 14.7377Q43.1797 14.1108 43.9619 13.7534Q44.7441 13.3959 45.6582 13.3959Q46.502 13.3959 47.1084 13.6362Q47.7148 13.8764 48.1455 14.2192Q48.5762 14.562 48.834 14.8725L49.4023 14.8725L49.4023 15.9155L48.1426 15.9155Q47.75 15.2475 47.1025 14.8608Q46.4551 14.4741 45.6523 14.4858Q44.9785 14.4858 44.416 14.7729Q43.8535 15.06 43.4521 15.5463Q43.0508 16.0327 42.8281 16.6655Q42.6055 17.2983 42.6055 18.0014Q42.6055 18.7807 42.8516 19.4487Q43.0977 20.1166 43.4785 20.5327Q43.8594 20.9487 44.4189 21.2211Q44.9785 21.4936 45.6582 21.4936Q46.7832 21.4936 47.5039 20.9457Q48.2246 20.3979 48.5117 19.2377L46.0273 19.2377L46.0273 18.2299L49.7832 18.2299L49.7832 22.4897L48.6934 22.4897ZM55.8125 17.6674L54.6992 17.6674L54.6992 17.2924Q54.5059 17.2924 54.3037 17.3657Q54.1016 17.4389 53.9258 17.5883Q53.75 17.7377 53.6182 17.9692Q53.4863 18.2006 53.4277 18.517L53.4277 21.4467L54.459 21.4467L54.459 22.4545L51.4473 22.4545L51.4473 21.4467L52.2852 21.4467L52.291 17.392L51.4473 17.392L51.4473 16.3842L53.3867 16.3842L53.3867 17.2221Q53.4922 17.0346 53.624 16.8735Q53.7559 16.7123 53.917 16.5922Q54.0781 16.4721 54.2744 16.4047Q54.4707 16.3373 54.6992 16.3373Q55.0039 16.3373 55.2734 16.3373Q55.543 16.3373 55.8125 16.3491L55.8125 17.6674ZM60.6406 21.892Q60.2949 22.2143 59.876 22.4194Q59.457 22.6245 58.9238 22.6245Q58.4785 22.6245 58.1064 22.4838Q57.7344 22.3432 57.4648 22.1Q57.1953 21.8569 57.0459 21.5346Q56.8965 21.2123 56.8965 20.8491Q56.8965 20.4623 57.0107 20.1635Q57.125 19.8647 57.3154 19.645Q57.5059 19.4252 57.7607 19.2758Q58.0156 19.1264 58.2939 19.0356Q58.5723 18.9448 58.8623 18.9067Q59.1523 18.8686 59.416 18.8686Q59.8379 18.8686 60.125 18.895Q60.4121 18.9213 60.6465 18.9682L60.6523 18.4702Q60.6523 18.1479 60.5586 17.9106Q60.4648 17.6733 60.2949 17.518Q60.125 17.3627 59.8877 17.2866Q59.6504 17.2104 59.3574 17.2104Q59.082 17.2104 58.8301 17.2485Q58.5781 17.2866 58.3584 17.3481Q58.1387 17.4096 57.9541 17.4887Q57.7695 17.5678 57.6406 17.6557L57.2832 16.8998Q57.5 16.7592 57.7578 16.6391Q58.0156 16.519 58.2998 16.434Q58.584 16.3491 58.8799 16.2993Q59.1758 16.2495 59.4629 16.2495Q59.9902 16.2495 60.4121 16.3754Q60.834 16.5014 61.127 16.7651Q61.4199 17.0287 61.5781 17.436Q61.7363 17.8432 61.7363 18.4116L61.7305 21.4467L62.4043 21.4467L62.4043 22.4545L60.6406 22.4545L60.6406 21.892ZM59.1641 21.7104Q59.3809 21.7104 59.5977 21.6577Q59.8145 21.6049 60.0078 21.5141Q60.2012 21.4233 60.3652 21.3032Q60.5293 21.183 60.6406 21.0541L60.6465 19.683L59.3809 19.683Q59.0645 19.683 58.8037 19.7534Q58.543 19.8237 58.3525 19.9584Q58.1621 20.0932 58.0566 20.2924Q57.9512 20.4916 57.9512 20.7495Q57.9512 20.9897 58.0391 21.1684Q58.127 21.3471 58.2881 21.4672Q58.4492 21.5873 58.6719 21.6489Q58.8945 21.7104 59.1641 21.7104ZM63.3945 16.3842L65.3281 16.3842L65.3281 16.8881Q65.7148 16.5893 66.1719 16.4135Q66.6289 16.2377 67.1152 16.2377Q67.7129 16.2377 68.2109 16.4604Q68.709 16.683 69.0693 17.0873Q69.4297 17.4916 69.6289 18.0571Q69.8281 18.6225 69.8281 19.308Q69.8281 20.0405 69.6055 20.644Q69.3828 21.2475 68.9873 21.6782Q68.5918 22.1088 68.0469 22.3491Q67.502 22.5893 66.8516 22.5893Q66.3887 22.5893 66.0283 22.4926Q65.668 22.3959 65.3398 22.2436L65.3398 24.2065L66.2891 24.2065L66.2891 25.2143L63.4062 25.2143L63.4062 24.2065L64.2383 24.2065L64.2383 17.392L63.3945 17.392L63.3945 16.3842ZM66.8281 17.1987Q66.4062 17.1987 66.0166 17.3686Q65.627 17.5385 65.3398 17.8373L65.3398 21.1245Q65.5332 21.3237 65.8936 21.4819Q66.2539 21.6401 66.793 21.6401Q67.168 21.6401 67.5137 21.4936Q67.8594 21.3471 68.123 21.0571Q68.3867 20.767 68.5449 20.3393Q68.7031 19.9116 68.7031 19.3491Q68.7031 18.8334 68.5537 18.435Q68.4043 18.0366 68.1494 17.7612Q67.8945 17.4858 67.5547 17.3422Q67.2148 17.1987 66.8281 17.1987ZM71.0352 13.3373L72.957 13.3373L72.957 17.0522L72.9922 17.0522Q73.1562 16.8881 73.3701 16.7446Q73.584 16.601 73.8184 16.4955Q74.0527 16.3901 74.3047 16.3315Q74.5566 16.2729 74.832 16.2729Q75.3184 16.2729 75.7109 16.4077Q76.1035 16.5424 76.3789 16.8178Q76.6543 17.0932 76.8037 17.5239Q76.9531 17.9545 76.9531 18.5405L76.9531 21.4467L77.8672 21.4467L77.8672 22.4545L74.9844 22.4545L74.9844 21.4467L75.8164 21.4467L75.8164 18.6752Q75.8164 17.978 75.4619 17.6176Q75.1074 17.2573 74.4453 17.2573Q74.0703 17.2573 73.6836 17.436Q73.2969 17.6147 72.957 17.8842L72.957 21.4467L73.8359 21.4467L73.8359 22.4545L70.9531 22.4545L70.9531 21.4467L71.8672 21.4467L71.8672 14.3452L71.0352 14.3452L71.0352 13.3373ZM80.6445 16.3842L82.0684 16.3842L82.0684 17.269L80.6328 17.269L80.6152 20.7729Q80.6152 21.1303 80.6973 21.353Q80.7793 21.5756 80.9609 21.6606Q81.1426 21.7455 81.3711 21.7455Q81.6172 21.7455 81.8047 21.7016Q81.9922 21.6577 82.2148 21.5522L82.4668 22.2846Q82.1855 22.4311 81.875 22.5161Q81.5645 22.601 81.1426 22.601Q80.7441 22.601 80.4482 22.5043Q80.1523 22.4077 79.9502 22.1791Q79.748 21.9506 79.6484 21.5668Q79.5488 21.183 79.5488 20.6088L79.5664 17.269L78.5996 17.269L78.5996 16.3842L79.5781 16.3842L79.5781 14.9311L80.6445 14.4272L80.6445 16.3842ZM82.9473 16.3842L85.25 16.3842L85.25 17.392L84.5293 17.392L85.9531 21.2651L87.4414 17.392L86.7266 17.392L86.7266 16.3842L89.0293 16.3842L89.0293 17.392L88.4023 17.392L85.7012 24.2065L86.5332 24.2065L86.5332 25.2143L84.084 25.2143L84.084 24.2065L84.8223 24.2065L85.4668 22.5366L83.4395 17.392L82.9473 17.392L82.9473 16.3842Z" fill="#007420" fill-opacity="1.000000" fill-rule="evenodd"/>
</svg>
