<svg width="33.000000" height="100.000000" viewBox="0 0 33 100" fill="none" xmlns="http://www.w3.org/2000/svg" xmlns:xlink="http://www.w3.org/1999/xlink">
	<desc>
			Created with Pixso.
	</desc>
	<defs>
		<clipPath id="clip7_38">
			<rect id="Search" width="12.000000" height="12.000000" transform="translate(8.000000 28.000000) rotate(-90.000000)" fill="white" fill-opacity="0"/>
		</clipPath>
	</defs>
	<path id="Search" d="M14.3643 77.1982L14.3643 76.0054C12.8262 76.0601 11.6777 77.4785 11.6777 79.4473C11.6777 81.3955 12.8125 82.9268 14.5215 82.9268C15.8955 82.9268 16.709 81.9321 17.167 80.3394L17.5259 79.0884C17.8232 78.0151 18.2026 77.0581 19.2144 77.0581C20.3286 77.0581 21.0669 78.1348 21.0669 79.5464C21.0669 80.7598 20.5269 81.833 19.375 81.9321L19.375 83.2036C21.0464 83.084 22.1777 81.7339 22.1777 79.5464C22.1777 77.1982 20.8857 75.8652 19.2349 75.8652C17.3276 75.8652 16.709 77.6768 16.4321 78.7295L16.1519 79.7651C15.9536 80.5205 15.5571 81.7339 14.4634 81.7339C13.4893 81.7339 12.7715 80.8384 12.7715 79.4849C12.7715 78.2544 13.3594 77.3179 14.3643 77.1982ZM22.1606 70.7951C22.1606 69.2434 21.3848 68.112 20.2295 67.7532L19.9116 68.8879C20.708 69.1853 21.1045 69.8757 21.1045 70.7951C21.1045 72.1726 20.2158 73.1228 18.5786 73.1775L18.5786 67.6335L18.083 67.6335C15.2393 67.6335 14.2651 69.3254 14.2651 70.9148C14.2651 72.9826 15.8955 74.3567 18.2402 74.3567C20.5884 74.3567 22.1606 73.0032 22.1606 70.7951ZM17.5669 73.1775C16.3774 73.0989 15.3179 72.258 15.3179 70.9148C15.3179 69.6433 16.2715 68.8264 17.5669 68.8264L17.5669 73.1775ZM22.1777 63.5953C22.1777 62.2658 21.4634 61.5685 20.9644 61.3292L20.9644 61.2711L22 61.2711L22 60.0953L16.9688 60.0953C14.542 60.0953 14.2651 61.9445 14.2651 62.922C14.2651 64.0739 14.6616 65.3864 16.0527 65.9845L16.4526 64.8703C15.8955 64.6105 15.2974 63.9987 15.2974 62.881C15.2974 61.8009 15.8716 61.2711 16.8491 61.2711L16.8901 61.2711C17.4575 61.2711 17.4062 61.8453 17.584 63.2399C17.7686 64.6549 18.083 66.2033 19.833 66.2033C21.3232 66.2033 22.1777 65.048 22.1777 63.5953ZM21.125 63.4176C21.125 64.3507 20.708 65.0275 19.8911 65.0275C18.9956 65.0275 18.7188 64.214 18.5991 63.298C18.541 62.8024 18.4009 61.4694 18.1616 61.2711L19.2349 61.2711C20.1919 61.2711 21.125 62.0265 21.125 63.4176ZM22 57.9495L22 56.7771L17.167 56.7771C16.1348 56.7771 15.3794 55.9602 15.3794 54.846C15.3794 54.5349 15.4375 54.2102 15.458 54.1316L14.2651 54.1316C14.2549 54.2649 14.2446 54.5725 14.2446 54.7468C14.2446 55.6629 14.7607 56.4558 15.5161 56.7361L15.5161 56.8147L14.3643 56.8147L14.3643 57.9495L22 57.9495ZM22.1606 49.8744C22.1606 48.1859 21.125 47.0716 19.7715 46.8734L19.7715 48.0458C20.6089 48.2645 21.1045 48.9618 21.1045 49.8744C21.1045 51.2655 19.9526 52.161 18.1821 52.161C16.4526 52.161 15.3179 51.2484 15.3179 49.8744C15.3179 48.8422 15.9536 48.2235 16.6509 48.0458L16.6509 46.8734C15.2188 47.0716 14.2651 48.285 14.2651 49.8949C14.2651 51.9628 15.8955 53.3368 18.2231 53.3368C20.5098 53.3368 22.1606 52.0243 22.1606 49.8744ZM17.4062 43.9902C16.0732 43.9902 15.3179 43.1391 15.3179 41.9804C15.3179 40.8764 16.0151 40.2099 17.2285 40.2099L22 40.2099L22 39.0376L17.1465 39.0376C15.1846 39.0376 14.2651 40.08 14.2651 41.642C14.2651 42.8452 14.7676 43.5322 15.5571 43.8876L15.5571 43.9902L11.8179 43.9902L11.8179 45.1626L22 45.1626L22 43.9902L17.4062 43.9902Z" fill="#232527" fill-opacity="1.000000" fill-rule="evenodd"/>
	<g clip-path="url(#clip7_38)">
		<path id="path" d="M13.25 18.5C10.9028 18.5 9 20.4028 9 22.75C9 25.0972 10.9028 27 13.25 27C15.5972 27 17.5 25.0972 17.5 22.75C17.5 20.4028 15.5972 18.5 13.25 18.5L13.25 18.5Z" stroke="#232527" stroke-opacity="1.000000" stroke-width="1.000000" stroke-linejoin="round"/>
		<path id="path" d="M11.5858 21.3358C11.2238 21.6977 11 22.1977 11 22.75C11 23.3022 11.2238 23.8022 11.5858 24.1642" stroke="#232527" stroke-opacity="1.000000" stroke-width="1.000000" stroke-linejoin="round" stroke-linecap="round"/>
		<path id="path" d="M15.1122 20.8878L19.62 16.38" stroke="#232527" stroke-opacity="1.000000" stroke-width="1.000000" stroke-linejoin="round" stroke-linecap="round"/>
	</g>
</svg>
