<svg width="33.000000" height="116.000000" viewBox="0 0 33 116" fill="none" xmlns="http://www.w3.org/2000/svg" xmlns:xlink="http://www.w3.org/1999/xlink">
	<desc>
			Created with Pixso.
	</desc>
	<defs>
		<clipPath id="clip7_32">
			<rect id="Like" width="12.000000" height="12.000000" transform="translate(10.500000 100.000000) rotate(-90.000000)" fill="white" fill-opacity="0"/>
		</clipPath>
	</defs>
	<g clip-path="url(#clip7_32)">
		<path id="path" d="M15.25 99C18 99 20.5 95.75 21.0815 94C20.5 92.25 18 89 15.25 89C13.7312 89 12.5 90.2312 12.5 91.75C12.5 92.6801 12.9617 93.5023 13.6685 94C12.9617 94.4977 12.5 95.3199 12.5 96.25C12.5 97.7688 13.7312 99 15.25 99L15.25 99Z" stroke="#232527" stroke-opacity="1.000000" stroke-width="1.000000" stroke-linejoin="round"/>
	</g>
	<path id="Favrouite" d="M22 76.7661L22 75.5356L17.4473 75.5356L17.4473 71.1196L16.3535 71.1196L16.3535 75.5356L12.9116 75.5356L12.9116 70.6616L11.8179 70.6616L11.8179 76.7661L22 76.7661ZM22.1777 66.4647C22.1777 65.1351 21.4634 64.4378 20.9644 64.1986L20.9644 64.1404L22 64.1404L22 62.9647L16.9688 62.9647C14.542 62.9647 14.2651 64.8138 14.2651 65.7913C14.2651 66.9432 14.6616 68.2557 16.0527 68.8538L16.4526 67.7396C15.8955 67.4798 15.2974 66.868 15.2974 65.7503C15.2974 64.6702 15.8716 64.1404 16.8491 64.1404L16.8901 64.1404C17.4575 64.1404 17.4062 64.7147 17.584 66.1092C17.7686 67.5242 18.083 69.0726 19.833 69.0726C21.3232 69.0726 22.1777 67.9173 22.1777 66.4647ZM21.125 66.2869C21.125 67.22 20.708 67.8968 19.8911 67.8968C18.9956 67.8968 18.7188 67.0833 18.5991 66.1673C18.541 65.6717 18.4009 64.3387 18.1616 64.1404L19.2349 64.1404C20.1919 64.1404 21.125 64.8958 21.125 66.2869ZM14.3643 54.8526L14.3643 56.1241L20.4482 58.233L20.4482 58.3116L14.3643 60.4205L14.3643 61.6919L22 58.8687L22 57.6758L14.3643 54.8526ZM22 53.3018L22 52.1294L17.167 52.1294C16.1348 52.1294 15.3794 51.3125 15.3794 50.1982C15.3794 49.8872 15.4375 49.5625 15.458 49.4839L14.2651 49.4839C14.2549 49.6172 14.2446 49.9248 14.2446 50.0991C14.2446 51.0151 14.7607 51.8081 15.5161 52.0884L15.5161 52.167L14.3643 52.167L14.3643 53.3018L22 53.3018ZM22.1606 45.2267C22.1606 43.1588 20.5884 41.7677 18.2231 41.7677C15.834 41.7677 14.2651 43.1588 14.2651 45.2267C14.2651 47.2945 15.834 48.6891 18.2231 48.6891C20.5884 48.6891 22.1606 47.2945 22.1606 45.2267ZM21.1045 45.2267C21.1045 46.7989 19.7544 47.5133 18.2231 47.5133C16.6919 47.5133 15.3179 46.7989 15.3179 45.2267C15.3179 43.6578 16.6919 42.94 18.2231 42.94C19.7544 42.94 21.1045 43.6578 21.1045 45.2267ZM18.8794 35.1654C20.3081 35.1654 20.9644 36.2591 20.9644 37.1341C20.9644 38.1083 20.25 38.8055 19.1357 38.8055L14.3643 38.8055L14.3643 39.9779L19.2144 39.9779C21.166 39.9779 22.0991 38.9422 22.0991 37.5101C22.0991 36.3583 21.4839 35.6029 20.708 35.244L20.708 35.1654L22 35.1654L22 33.993L14.3643 33.993L14.3643 35.1654L18.8794 35.1654ZM22 31.8444L22 30.672L14.3643 30.672L14.3643 31.8444L22 31.8444ZM13.0894 31.2462C13.0894 30.7882 12.7339 30.4122 12.2964 30.4122C11.8589 30.4122 11.5 30.7882 11.5 31.2462C11.5 31.7042 11.8589 32.0836 12.2964 32.0836C12.7339 32.0836 13.0894 31.7042 13.0894 31.2462ZM14.3643 25.2011L14.3643 26.8315L12.5356 26.8315L12.5356 28.0072L14.3643 28.0072L14.3643 29.1591L15.3589 29.1591L15.3589 28.0072L20.1304 28.0072C21.4634 28.0072 22.0991 26.9306 22.0991 25.9359C22.0991 25.4984 22.0205 25.2216 21.959 25.0609L20.9062 25.3002C20.9268 25.3993 20.9644 25.56 20.9644 25.8197C20.9644 26.3358 20.8071 26.8315 19.8125 26.8315L15.3589 26.8315L15.3589 25.2011L14.3643 25.2011ZM22.1606 20.3093C22.1606 18.7576 21.3848 17.6262 20.2295 17.2674L19.9116 18.4021C20.708 18.6995 21.1045 19.3899 21.1045 20.3093C21.1045 21.6868 20.2158 22.637 18.5786 22.6917L18.5786 17.1477L18.083 17.1477C15.2393 17.1477 14.2651 18.8396 14.2651 20.429C14.2651 22.4968 15.8955 23.8709 18.2402 23.8709C20.5884 23.8709 22.1606 22.5174 22.1606 20.3093ZM17.5669 22.6917C16.3774 22.6131 15.3179 21.7722 15.3179 20.429C15.3179 19.1575 16.2715 18.3406 17.5669 18.3406L17.5669 22.6917Z" fill="#232527" fill-opacity="1.000000" fill-rule="evenodd"/>
</svg>
