<svg width="33.000000" height="103.000000" viewBox="0 0 33 103" fill="none" xmlns="http://www.w3.org/2000/svg" xmlns:xlink="http://www.w3.org/1999/xlink">
	<desc>
			Created with Pixso.
	</desc>
	<defs>
		<clipPath id="clip7_17">
			<rect id="Home" width="12.000000" height="12.000000" transform="translate(10.500000 87.000000) rotate(-90.000000)" fill="white" fill-opacity="0"/>
		</clipPath>
	</defs>
	<rect id="Frame 1" rx="8.000000" width="103.000000" height="33.000000" transform="translate(0.000000 103.000000) rotate(-90.000000)" fill="#007420" fill-opacity="1.000000"/>
	<g clip-path="url(#clip7_17)">
		<path id="path" d="M15 84.75L16 86L12 81L16 76L15 77.25L21 77.25L21 84.75L15 84.75Z" stroke="#FFFFFF" stroke-opacity="1.000000" stroke-width="1.000000" stroke-linejoin="round"/>
		<path id="path" d="M21 82.25L21 79.75L17.75 79.75L17.75 82.25L21 82.25Z" stroke="#FFFFFF" stroke-opacity="1.000000" stroke-width="1.000000" stroke-linejoin="round"/>
		<path id="path" d="M21 84.75L21 77.25" stroke="#FFFFFF" stroke-opacity="1.000000" stroke-width="1.000000" stroke-linecap="round"/>
	</g>
	<path id="Explore" d="M22 63.7661L22 57.542L20.9062 57.542L20.9062 62.5356L17.4473 62.5356L17.4473 57.9419L16.3535 57.9419L16.3535 62.5356L12.9116 62.5356L12.9116 57.6206L11.8179 57.6206L11.8179 63.7661L22 63.7661ZM14.3643 54.6796L14.3643 56.0297L18.1821 53.6064L22 56.0297L22 54.6796L19.0366 52.851L22 51.019L22 49.6689L18.1821 52.1332L14.3643 49.6689L14.3643 51.019L17.4849 52.851L14.3643 54.6796ZM24.8643 47.9978L24.8643 46.8254L20.8276 46.8254L20.8276 46.7229C21.2446 46.4665 22.1606 45.9675 22.1606 44.4978C22.1606 42.5871 20.6294 41.2541 18.2026 41.2541C15.7964 41.2541 14.2651 42.5871 14.2651 44.5183C14.2651 46.0085 15.1777 46.4665 15.5776 46.7229L15.5776 46.863L14.3643 46.863L14.3643 47.9978L24.8643 47.9978ZM18.1821 46.8425C16.4731 46.8425 15.3179 46.0871 15.3179 44.655C15.3179 43.1648 16.5723 42.4299 18.1821 42.4299C19.8125 42.4299 21.1045 43.1853 21.1045 44.655C21.1045 46.0666 19.9116 46.8425 18.1821 46.8425ZM11.8179 38.2942L11.8179 39.4665L22 39.4665L22 38.2942L11.8179 38.2942ZM22.1606 33.042C22.1606 30.9741 20.5884 29.583 18.2231 29.583C15.834 29.583 14.2651 30.9741 14.2651 33.042C14.2651 35.1099 15.834 36.5044 18.2231 36.5044C20.5884 36.5044 22.1606 35.1099 22.1606 33.042ZM21.1045 33.042C21.1045 34.6143 19.7544 35.3286 18.2231 35.3286C16.6919 35.3286 15.3179 34.6143 15.3179 33.042C15.3179 31.4731 16.6919 30.7554 18.2231 30.7554C19.7544 30.7554 21.1045 31.4731 21.1045 33.042ZM22 27.7932L22 26.6209L17.167 26.6209C16.1348 26.6209 15.3794 25.804 15.3794 24.6897C15.3794 24.3787 15.4375 24.054 15.458 23.9754L14.2651 23.9754C14.2549 24.1087 14.2446 24.4163 14.2446 24.5906C14.2446 25.5066 14.7607 26.2996 15.5161 26.5799L15.5161 26.6585L14.3643 26.6585L14.3643 27.7932L22 27.7932ZM22.1606 19.619C22.1606 18.0672 21.3848 16.9359 20.2295 16.577L19.9116 17.7118C20.708 18.0091 21.1045 18.6996 21.1045 19.619C21.1045 20.9964 20.2158 21.9466 18.5786 22.0013L18.5786 16.4574L18.083 16.4574C15.2393 16.4574 14.2651 18.1493 14.2651 19.7386C14.2651 21.8065 15.8955 23.1805 18.2402 23.1805C20.5884 23.1805 22.1606 21.827 22.1606 19.619ZM17.5669 22.0013C16.3774 21.9227 15.3179 21.0819 15.3179 19.7386C15.3179 18.4672 16.2715 17.6503 17.5669 17.6503L17.5669 22.0013Z" fill="#FAFFFB" fill-opacity="1.000000" fill-rule="evenodd"/>
</svg>
