<svg width="33.000000" height="114.000000" viewBox="0 0 33 114" fill="none" xmlns="http://www.w3.org/2000/svg" xmlns:xlink="http://www.w3.org/1999/xlink">
	<desc>
			Created with Pixso.
	</desc>
	<defs>
		<clipPath id="clip7_25">
			<rect id="Application" width="12.000000" height="12.000000" transform="translate(10.500000 98.000000) rotate(-90.000000)" fill="white" fill-opacity="0"/>
		</clipPath>
	</defs>
	<g clip-path="url(#clip7_25)">
		<path id="path" d="M16 87.9902L21 87.9902L21 95.9902L16 95.9902" stroke="#232527" stroke-opacity="1.000000" stroke-width="1.000000" stroke-linejoin="round" stroke-linecap="round"/>
		<path id="path" d="M16 95.1227C16 94.2943 15.3284 93.6181 14.5 93.6181C15.3284 93.6181 16 92.9465 16 92.1181L16 91.8635C16 91.0351 15.3284 90.3635 14.5 90.3635C15.3284 90.3635 16 89.687 16 88.8586C16 87.7965 14.9338 87.0582 13.9431 87.4409L12 88.1916L12 95.7887L13.9442 96.5394C14.9344 96.9218 16 96.1842 16 95.1227L16 95.1227Z" stroke="#232527" stroke-opacity="1.000000" stroke-width="1.000000" stroke-linejoin="round"/>
	</g>
	<path id="My Plans" d="M11.8179 74.7661L22 74.7661L22 73.6143L14.2651 73.6143L14.2651 73.5151L22 70.333L22 69.2188L14.2651 66.0366L14.2651 65.9375L22 65.9375L22 64.7856L11.8179 64.7856L11.8179 66.2554L20.2705 69.7144L20.2705 69.834L11.8179 73.2964L11.8179 74.7661ZM24.8643 61.7225C24.8643 60.663 24.3003 59.9178 23.1143 59.4735L14.3643 56.2333L14.3643 57.5047L20.4482 59.6136L20.4482 59.6922L14.3643 61.8011L14.3643 63.0726L22.041 60.2494L22.6357 60.4681C23.8013 60.8954 23.9106 61.4217 23.6919 62.2797L24.7241 62.577C24.7856 62.4574 24.8643 62.119 24.8643 61.7225ZM22 50.5843L22 49.3538L18.2812 49.3538L18.2812 47.1253C18.2812 44.7532 16.8389 43.6834 15.041 43.6834C13.2397 43.6834 11.8179 44.7532 11.8179 47.1458L11.8179 50.5843L22 50.5843ZM17.1875 49.3538L12.9116 49.3538L12.9116 47.1834C12.9116 45.5291 13.8174 44.8968 15.041 44.8968C16.2612 44.8968 17.1875 45.5291 17.1875 47.1663L17.1875 49.3538ZM11.8179 40.6834L11.8179 41.8557L22 41.8557L22 40.6834L11.8179 40.6834ZM22.1777 36.2857C22.1777 34.9561 21.4634 34.2588 20.9644 34.0196L20.9644 33.9615L22 33.9615L22 32.7857L16.9688 32.7857C14.542 32.7857 14.2651 34.6348 14.2651 35.6124C14.2651 36.7642 14.6616 38.0767 16.0527 38.6749L16.4526 37.5606C15.8955 37.3008 15.2974 36.689 15.2974 35.5713C15.2974 34.4913 15.8716 33.9615 16.8491 33.9615L16.8901 33.9615C17.4575 33.9615 17.4062 34.5357 17.584 35.9302C17.7686 37.3453 18.083 38.8936 19.833 38.8936C21.3232 38.8936 22.1777 37.7383 22.1777 36.2857ZM21.125 36.108C21.125 37.0411 20.708 37.7178 19.8911 37.7178C18.9956 37.7178 18.7188 36.9043 18.5991 35.9883C18.541 35.4927 18.4009 34.1597 18.1616 33.9615L19.2349 33.9615C20.1919 33.9615 21.125 34.7168 21.125 36.108ZM17.4062 29.4675C16.0732 29.4675 15.3179 28.6403 15.3179 27.5158C15.3179 26.4289 16.0288 25.7658 17.2285 25.7658L22 25.7658L22 24.5934L17.1465 24.5934C15.1982 24.5934 14.2651 25.6325 14.2651 27.1774C14.2651 28.3327 14.7812 29.0471 15.5571 29.4059L15.5571 29.5051L14.3643 29.5051L14.3643 30.6398L22 30.6398L22 29.4675L17.4062 29.4675ZM16.0732 17.036C14.9897 17.4051 14.2651 18.2289 14.2651 19.743C14.2651 21.3529 15.1777 22.5458 16.4731 22.5458C17.5259 22.5458 18.23 21.9203 18.5581 20.5155L18.8589 19.244C19.0366 18.475 19.4058 18.1092 19.9321 18.1092C20.5884 18.1092 21.125 18.8065 21.125 19.9003C21.125 20.8607 20.7114 21.4623 19.8911 21.6708L20.1714 22.785C21.4668 22.5116 22.1606 21.4418 22.1606 19.8798C22.1606 18.1058 21.1899 16.8993 19.8706 16.8993C18.8076 16.8993 18.1377 17.5624 17.8027 18.9261L17.5259 20.0609C17.3003 20.9632 16.9995 21.3734 16.4116 21.3734C15.7554 21.3734 15.2769 20.6761 15.2769 19.743C15.2769 18.7176 15.8442 18.2938 16.3706 18.0922L16.0732 17.036Z" fill="#232527" fill-opacity="1.000000" fill-rule="evenodd"/>
</svg>
